# Blender 3.3.1
# www.blender.org
mtllib cylinders.mtl
o Cylinder
v -5.331197 -13.524901 -2.684869
v -5.331197 13.524901 -2.684869
v -3.682743 -13.524901 -2.522510
v -3.682743 13.524901 -2.522510
v -2.097637 -13.524901 -2.041674
v -2.097637 13.524901 -2.041674
v -0.636795 -13.524901 -1.260838
v -0.636795 13.524901 -1.260838
v 0.643643 -13.524901 -0.210009
v 0.643643 13.524901 -0.210009
v 1.694472 -13.524901 1.070429
v 1.694472 13.524901 1.070429
v 2.475308 -13.524901 2.531271
v 2.475308 13.524901 2.531271
v 2.956144 -13.524901 4.116376
v 2.956144 13.524901 4.116376
v 3.118503 -13.524901 5.764831
v 3.118503 13.524901 5.764831
v 2.956144 -13.524901 7.413286
v 2.956144 13.524901 7.413286
v 2.475308 -13.524901 8.998392
v 2.475308 13.524901 8.998392
v 1.694472 -13.524901 10.459233
v 1.694472 13.524901 10.459233
v 0.643643 -13.524901 11.739672
v 0.643643 13.524901 11.739672
v -0.636795 -13.524901 12.790501
v -0.636795 13.524901 12.790501
v -2.097637 -13.524901 13.571337
v -2.097637 13.524901 13.571337
v -3.682743 -13.524901 14.052172
v -3.682743 13.524901 14.052172
v -5.331197 -13.524901 14.214531
v -5.331197 13.524901 14.214531
v -6.979652 -13.524901 14.052172
v -6.979652 13.524901 14.052172
v -8.564758 -13.524901 13.571337
v -8.564758 13.524901 13.571337
v -10.025599 -13.524901 12.790501
v -10.025599 13.524901 12.790501
v -11.306038 -13.524901 11.739672
v -11.306038 13.524901 11.739672
v -12.356867 -13.524901 10.459233
v -12.356867 13.524901 10.459233
v -13.137703 -13.524901 8.998392
v -13.137703 13.524901 8.998392
v -13.618538 -13.524901 7.413286
v -13.618538 13.524901 7.413286
v -13.780897 -13.524901 5.764831
v -13.780897 13.524901 5.764831
v -13.618538 -13.524901 4.116376
v -13.618538 13.524901 4.116376
v -13.137703 -13.524901 2.531271
v -13.137703 13.524901 2.531271
v -12.356867 -13.524901 1.070429
v -12.356867 13.524901 1.070429
v -11.306038 -13.524901 -0.210009
v -11.306038 13.524901 -0.210009
v -10.025599 -13.524901 -1.260838
v -10.025599 13.524901 -1.260838
v -8.564758 -13.524901 -2.041674
v -8.564758 13.524901 -2.041674
v -6.979652 -13.524901 -2.522510
v -6.979652 13.524901 -2.522510
vn -0.0000 -0.0000 -1.0000
vn 0.1951 -0.0000 -0.9808
vn 0.3827 -0.0000 -0.9239
vn 0.5556 -0.0000 -0.8315
vn 0.7071 -0.0000 -0.7071
vn 0.8315 -0.0000 -0.5556
vn 0.9239 -0.0000 -0.3827
vn 0.9808 -0.0000 -0.1951
vn 1.0000 -0.0000 -0.0000
vn 0.9808 -0.0000 0.1951
vn 0.9239 -0.0000 0.3827
vn 0.8315 -0.0000 0.5556
vn 0.7071 -0.0000 0.7071
vn 0.5556 -0.0000 0.8315
vn 0.3827 -0.0000 0.9239
vn 0.1951 -0.0000 0.9808
vn -0.0000 -0.0000 1.0000
vn -0.1951 -0.0000 0.9808
vn -0.3827 -0.0000 0.9239
vn -0.5556 -0.0000 0.8315
vn -0.7071 -0.0000 0.7071
vn -0.8315 -0.0000 0.5556
vn -0.9239 -0.0000 0.3827
vn -0.9808 -0.0000 0.1951
vn -1.0000 -0.0000 -0.0000
vn -0.9808 -0.0000 -0.1951
vn -0.9239 -0.0000 -0.3827
vn -0.8315 -0.0000 -0.5556
vn -0.7071 -0.0000 -0.7071
vn -0.5556 -0.0000 -0.8315
vn -0.3827 -0.0000 -0.9239
vn -0.0000 1.0000 -0.0000
vn -0.1951 -0.0000 -0.9808
vn -0.0000 -1.0000 -0.0000
vt 1.000000 0.500000
vt 0.000000 0.500000
vt 0.750000 0.490000
vt 1.000000 1.000000
vt 0.250000 0.490000
vt 0.000000 1.000000
vt 0.968750 0.500000
vt 0.796822 0.485388
vt 0.968750 1.000000
vt 0.296822 0.485388
vt 0.937500 0.500000
vt 0.841844 0.471731
vt 0.937500 1.000000
vt 0.341844 0.471731
vt 0.906250 0.500000
vt 0.883337 0.449553
vt 0.906250 1.000000
vt 0.383337 0.449553
vt 0.875000 0.500000
vt 0.919706 0.419706
vt 0.875000 1.000000
vt 0.419706 0.419706
vt 0.843750 0.500000
vt 0.949553 0.383337
vt 0.843750 1.000000
vt 0.449553 0.383337
vt 0.812500 0.500000
vt 0.971731 0.341844
vt 0.812500 1.000000
vt 0.471731 0.341844
vt 0.781250 0.500000
vt 0.985388 0.296822
vt 0.781250 1.000000
vt 0.485388 0.296822
vt 0.750000 0.500000
vt 0.990000 0.250000
vt 0.750000 1.000000
vt 0.490000 0.250000
vt 0.718750 0.500000
vt 0.985388 0.203178
vt 0.718750 1.000000
vt 0.485388 0.203178
vt 0.687500 0.500000
vt 0.971731 0.158156
vt 0.687500 1.000000
vt 0.471731 0.158156
vt 0.656250 0.500000
vt 0.949553 0.116663
vt 0.656250 1.000000
vt 0.449553 0.116663
vt 0.625000 0.500000
vt 0.919706 0.080294
vt 0.625000 1.000000
vt 0.419706 0.080294
vt 0.593750 0.500000
vt 0.883337 0.050447
vt 0.593750 1.000000
vt 0.383337 0.050447
vt 0.562500 0.500000
vt 0.841844 0.028269
vt 0.562500 1.000000
vt 0.341844 0.028269
vt 0.531250 0.500000
vt 0.796822 0.014612
vt 0.531250 1.000000
vt 0.296822 0.014612
vt 0.500000 0.500000
vt 0.750000 0.010000
vt 0.500000 1.000000
vt 0.250000 0.010000
vt 0.468750 0.500000
vt 0.703178 0.014612
vt 0.468750 1.000000
vt 0.203178 0.014612
vt 0.437500 0.500000
vt 0.658156 0.028269
vt 0.437500 1.000000
vt 0.158156 0.028269
vt 0.406250 0.500000
vt 0.616663 0.050447
vt 0.406250 1.000000
vt 0.116663 0.050447
vt 0.375000 0.500000
vt 0.580294 0.080294
vt 0.375000 1.000000
vt 0.080294 0.080294
vt 0.343750 0.500000
vt 0.550447 0.116663
vt 0.343750 1.000000
vt 0.050447 0.116663
vt 0.312500 0.500000
vt 0.528269 0.158156
vt 0.312500 1.000000
vt 0.028269 0.158156
vt 0.281250 0.500000
vt 0.514612 0.203178
vt 0.281250 1.000000
vt 0.014612 0.203178
vt 0.250000 0.500000
vt 0.510000 0.250000
vt 0.250000 1.000000
vt 0.010000 0.250000
vt 0.218750 0.500000
vt 0.514612 0.296822
vt 0.218750 1.000000
vt 0.014612 0.296822
vt 0.187500 0.500000
vt 0.528269 0.341844
vt 0.187500 1.000000
vt 0.028269 0.341844
vt 0.156250 0.500000
vt 0.550447 0.383337
vt 0.156250 1.000000
vt 0.050447 0.383337
vt 0.125000 0.500000
vt 0.580294 0.419706
vt 0.125000 1.000000
vt 0.080294 0.419706
vt 0.093750 0.500000
vt 0.616663 0.449553
vt 0.093750 1.000000
vt 0.116663 0.449553
vt 0.062500 0.500000
vt 0.658156 0.471731
vt 0.158156 0.471731
vt 0.062500 1.000000
vt 0.031250 0.500000
vt 0.703178 0.485388
vt 0.203178 0.485388
vt 0.031250 1.000000
s 1
f 1/1/1 2/4/1 4/9/2 3/7/2
f 3/7/2 4/9/2 6/13/3 5/11/3
f 5/11/3 6/13/3 8/17/4 7/15/4
f 7/15/4 8/17/4 10/21/5 9/19/5
f 9/19/5 10/21/5 12/25/6 11/23/6
f 11/23/6 12/25/6 14/29/7 13/27/7
f 13/27/7 14/29/7 16/33/8 15/31/8
f 15/31/8 16/33/8 18/37/9 17/35/9
f 17/35/9 18/37/9 20/41/10 19/39/10
f 19/39/10 20/41/10 22/45/11 21/43/11
f 21/43/11 22/45/11 24/49/12 23/47/12
f 23/47/12 24/49/12 26/53/13 25/51/13
f 25/51/13 26/53/13 28/57/14 27/55/14
f 27/55/14 28/57/14 30/61/15 29/59/15
f 29/59/15 30/61/15 32/65/16 31/63/16
f 31/63/16 32/65/16 34/69/17 33/67/17
f 33/67/17 34/69/17 36/73/18 35/71/18
f 35/71/18 36/73/18 38/77/19 37/75/19
f 37/75/19 38/77/19 40/81/20 39/79/20
f 39/79/20 40/81/20 42/85/21 41/83/21
f 41/83/21 42/85/21 44/89/22 43/87/22
f 43/87/22 44/89/22 46/93/23 45/91/23
f 45/91/23 46/93/23 48/97/24 47/95/24
f 47/95/24 48/97/24 50/101/25 49/99/25
f 49/99/25 50/101/25 52/105/26 51/103/26
f 51/103/26 52/105/26 54/109/27 53/107/27
f 53/107/27 54/109/27 56/113/28 55/111/28
f 55/111/28 56/113/28 58/117/29 57/115/29
f 57/115/29 58/117/29 60/121/30 59/119/30
f 59/119/30 60/121/30 62/126/31 61/123/31
f 4/10/32 2/5/32 64/129/32 62/125/32 60/122/32 58/118/32 56/114/32 54/110/32 52/106/32 50/102/32 48/98/32 46/94/32 44/90/32 42/86/32 40/82/32 38/78/32 36/74/32 34/70/32 32/66/32 30/62/32 28/58/32 26/54/32 24/50/32 22/46/32 20/42/32 18/38/32 16/34/32 14/30/32 12/26/32 10/22/32 8/18/32 6/14/32
f 61/123/31 62/126/31 64/130/33 63/127/33
f 63/127/33 64/130/33 2/6/1 1/2/1
f 1/3/34 3/8/34 5/12/34 7/16/34 9/20/34 11/24/34 13/28/34 15/32/34 17/36/34 19/40/34 21/44/34 23/48/34 25/52/34 27/56/34 29/60/34 31/64/34 33/68/34 35/72/34 37/76/34 39/80/34 41/84/34 43/88/34 45/92/34 47/96/34 49/100/34 51/104/34 53/108/34 55/112/34 57/116/34 59/120/34 61/124/34 63/128/34
o Cylinder.001
v 6.762449 -13.524901 -15.762199
v 6.762449 13.524901 -15.762199
v 8.410904 -13.524901 -15.599840
v 8.410904 13.524901 -15.599840
v 9.996010 -13.524901 -15.119005
v 9.996010 13.524901 -15.119005
v 11.456851 -13.524901 -14.338169
v 11.456851 13.524901 -14.338169
v 12.737289 -13.524901 -13.287340
v 12.737289 13.524901 -13.287340
v 13.788118 -13.524901 -12.006902
v 13.788118 13.524901 -12.006902
v 14.568954 -13.524901 -10.546061
v 14.568954 13.524901 -10.546061
v 15.049789 -13.524901 -8.960955
v 15.049789 13.524901 -8.960955
v 15.212149 -13.524901 -7.312500
v 15.212149 13.524901 -7.312500
v 15.049789 -13.524901 -5.664045
v 15.049789 13.524901 -5.664045
v 14.568954 -13.524901 -4.078939
v 14.568954 13.524901 -4.078939
v 13.788118 -13.524901 -2.618097
v 13.788118 13.524901 -2.618097
v 12.737289 -13.524901 -1.337659
v 12.737289 13.524901 -1.337659
v 11.456851 -13.524901 -0.286830
v 11.456851 13.524901 -0.286830
v 9.996010 -13.524901 0.494006
v 9.996010 13.524901 0.494006
v 8.410904 -13.524901 0.974842
v 8.410904 13.524901 0.974842
v 6.762449 -13.524901 1.137201
v 6.762449 13.524901 1.137201
v 5.113994 -13.524901 0.974842
v 5.113994 13.524901 0.974842
v 3.528888 -13.524901 0.494006
v 3.528888 13.524901 0.494006
v 2.068047 -13.524901 -0.286830
v 2.068047 13.524901 -0.286830
v 0.787609 -13.524901 -1.337659
v 0.787609 13.524901 -1.337659
v -0.263220 -13.524901 -2.618097
v -0.263220 13.524901 -2.618097
v -1.044056 -13.524901 -4.078939
v -1.044056 13.524901 -4.078939
v -1.524892 -13.524901 -5.664045
v -1.524892 13.524901 -5.664045
v -1.687252 -13.524901 -7.312500
v -1.687252 13.524901 -7.312500
v -1.524892 -13.524901 -8.960955
v -1.524892 13.524901 -8.960955
v -1.044056 -13.524901 -10.546061
v -1.044056 13.524901 -10.546061
v -0.263220 -13.524901 -12.006902
v -0.263220 13.524901 -12.006902
v 0.787609 -13.524901 -13.287340
v 0.787609 13.524901 -13.287340
v 2.068047 -13.524901 -14.338169
v 2.068047 13.524901 -14.338169
v 3.528888 -13.524901 -15.119005
v 3.528888 13.524901 -15.119005
v 5.113994 -13.524901 -15.599840
v 5.113994 13.524901 -15.599840
vn 0.0980 -0.0000 -0.9952
vn 0.2903 -0.0000 -0.9569
vn 0.4714 -0.0000 -0.8819
vn 0.6344 -0.0000 -0.7730
vn 0.7730 -0.0000 -0.6344
vn 0.8819 -0.0000 -0.4714
vn 0.9569 -0.0000 -0.2903
vn 0.9952 -0.0000 -0.0980
vn 0.9952 -0.0000 0.0980
vn 0.9569 -0.0000 0.2903
vn 0.8819 -0.0000 0.4714
vn 0.7730 -0.0000 0.6344
vn 0.6344 -0.0000 0.7730
vn 0.4714 -0.0000 0.8819
vn 0.2903 -0.0000 0.9569
vn 0.0980 -0.0000 0.9952
vn -0.0980 -0.0000 0.9952
vn -0.2903 -0.0000 0.9569
vn -0.4714 -0.0000 0.8819
vn -0.6344 -0.0000 0.7730
vn -0.7730 -0.0000 0.6344
vn -0.8819 -0.0000 0.4714
vn -0.9569 -0.0000 0.2903
vn -0.9952 -0.0000 0.0980
vn -0.9952 -0.0000 -0.0980
vn -0.9569 -0.0000 -0.2903
vn -0.8819 -0.0000 -0.4714
vn -0.7730 -0.0000 -0.6344
vn -0.6344 -0.0000 -0.7730
vn -0.4714 -0.0000 -0.8819
vn -0.0000 1.0000 -0.0000
vn -0.2903 -0.0000 -0.9569
vn -0.0980 -0.0000 -0.9952
vn -0.0000 -1.0000 -0.0000
vt 1.000000 0.500000
vt 0.000000 0.500000
vt 0.750000 0.490000
vt 1.000000 1.000000
vt 0.250000 0.490000
vt 0.000000 1.000000
vt 0.968750 0.500000
vt 0.796822 0.485388
vt 0.968750 1.000000
vt 0.296822 0.485388
vt 0.937500 0.500000
vt 0.841844 0.471731
vt 0.937500 1.000000
vt 0.341844 0.471731
vt 0.906250 0.500000
vt 0.883337 0.449553
vt 0.906250 1.000000
vt 0.383337 0.449553
vt 0.875000 0.500000
vt 0.919706 0.419706
vt 0.875000 1.000000
vt 0.419706 0.419706
vt 0.843750 0.500000
vt 0.949553 0.383337
vt 0.843750 1.000000
vt 0.449553 0.383337
vt 0.812500 0.500000
vt 0.971731 0.341844
vt 0.812500 1.000000
vt 0.471731 0.341844
vt 0.781250 0.500000
vt 0.985388 0.296822
vt 0.781250 1.000000
vt 0.485388 0.296822
vt 0.750000 0.500000
vt 0.990000 0.250000
vt 0.750000 1.000000
vt 0.490000 0.250000
vt 0.718750 0.500000
vt 0.985388 0.203178
vt 0.718750 1.000000
vt 0.485388 0.203178
vt 0.687500 0.500000
vt 0.971731 0.158156
vt 0.687500 1.000000
vt 0.471731 0.158156
vt 0.656250 0.500000
vt 0.949553 0.116663
vt 0.656250 1.000000
vt 0.449553 0.116663
vt 0.625000 0.500000
vt 0.919706 0.080294
vt 0.625000 1.000000
vt 0.419706 0.080294
vt 0.593750 0.500000
vt 0.883337 0.050447
vt 0.593750 1.000000
vt 0.383337 0.050447
vt 0.562500 0.500000
vt 0.841844 0.028269
vt 0.562500 1.000000
vt 0.341844 0.028269
vt 0.531250 0.500000
vt 0.796822 0.014612
vt 0.531250 1.000000
vt 0.296822 0.014612
vt 0.500000 0.500000
vt 0.750000 0.010000
vt 0.500000 1.000000
vt 0.250000 0.010000
vt 0.468750 0.500000
vt 0.703178 0.014612
vt 0.468750 1.000000
vt 0.203178 0.014612
vt 0.437500 0.500000
vt 0.658156 0.028269
vt 0.437500 1.000000
vt 0.158156 0.028269
vt 0.406250 0.500000
vt 0.616663 0.050447
vt 0.406250 1.000000
vt 0.116663 0.050447
vt 0.375000 0.500000
vt 0.580294 0.080294
vt 0.375000 1.000000
vt 0.080294 0.080294
vt 0.343750 0.500000
vt 0.550447 0.116663
vt 0.343750 1.000000
vt 0.050447 0.116663
vt 0.312500 0.500000
vt 0.528269 0.158156
vt 0.312500 1.000000
vt 0.028269 0.158156
vt 0.281250 0.500000
vt 0.514612 0.203178
vt 0.281250 1.000000
vt 0.014612 0.203178
vt 0.250000 0.500000
vt 0.510000 0.250000
vt 0.250000 1.000000
vt 0.010000 0.250000
vt 0.218750 0.500000
vt 0.514612 0.296822
vt 0.218750 1.000000
vt 0.014612 0.296822
vt 0.187500 0.500000
vt 0.528269 0.341844
vt 0.187500 1.000000
vt 0.028269 0.341844
vt 0.156250 0.500000
vt 0.550447 0.383337
vt 0.156250 1.000000
vt 0.050447 0.383337
vt 0.125000 0.500000
vt 0.580294 0.419706
vt 0.125000 1.000000
vt 0.080294 0.419706
vt 0.093750 0.500000
vt 0.616663 0.449553
vt 0.093750 1.000000
vt 0.116663 0.449553
vt 0.062500 0.500000
vt 0.658156 0.471731
vt 0.158156 0.471731
vt 0.062500 1.000000
vt 0.031250 0.500000
vt 0.703178 0.485388
vt 0.203178 0.485388
vt 0.031250 1.000000
s 0
f 65/131/35 66/134/35 68/139/35 67/137/35
f 67/137/36 68/139/36 70/143/36 69/141/36
f 69/141/37 70/143/37 72/147/37 71/145/37
f 71/145/38 72/147/38 74/151/38 73/149/38
f 73/149/39 74/151/39 76/155/39 75/153/39
f 75/153/40 76/155/40 78/159/40 77/157/40
f 77/157/41 78/159/41 80/163/41 79/161/41
f 79/161/42 80/163/42 82/167/42 81/165/42
f 81/165/43 82/167/43 84/171/43 83/169/43
f 83/169/44 84/171/44 86/175/44 85/173/44
f 85/173/45 86/175/45 88/179/45 87/177/45
f 87/177/46 88/179/46 90/183/46 89/181/46
f 89/181/47 90/183/47 92/187/47 91/185/47
f 91/185/48 92/187/48 94/191/48 93/189/48
f 93/189/49 94/191/49 96/195/49 95/193/49
f 95/193/50 96/195/50 98/199/50 97/197/50
f 97/197/51 98/199/51 100/203/51 99/201/51
f 99/201/52 100/203/52 102/207/52 101/205/52
f 101/205/53 102/207/53 104/211/53 103/209/53
f 103/209/54 104/211/54 106/215/54 105/213/54
f 105/213/55 106/215/55 108/219/55 107/217/55
f 107/217/56 108/219/56 110/223/56 109/221/56
f 109/221/57 110/223/57 112/227/57 111/225/57
f 111/225/58 112/227/58 114/231/58 113/229/58
f 113/229/59 114/231/59 116/235/59 115/233/59
f 115/233/60 116/235/60 118/239/60 117/237/60
f 117/237/61 118/239/61 120/243/61 119/241/61
f 119/241/62 120/243/62 122/247/62 121/245/62
f 121/245/63 122/247/63 124/251/63 123/249/63
f 123/249/64 124/251/64 126/256/64 125/253/64
f 68/140/65 66/135/65 128/259/65 126/255/65 124/252/65 122/248/65 120/244/65 118/240/65 116/236/65 114/232/65 112/228/65 110/224/65 108/220/65 106/216/65 104/212/65 102/208/65 100/204/65 98/200/65 96/196/65 94/192/65 92/188/65 90/184/65 88/180/65 86/176/65 84/172/65 82/168/65 80/164/65 78/160/65 76/156/65 74/152/65 72/148/65 70/144/65
f 125/253/66 126/256/66 128/260/66 127/257/66
f 127/257/67 128/260/67 66/136/67 65/132/67
f 65/133/68 67/138/68 69/142/68 71/146/68 73/150/68 75/154/68 77/158/68 79/162/68 81/166/68 83/170/68 85/174/68 87/178/68 89/182/68 91/186/68 93/190/68 95/194/68 97/198/68 99/202/68 101/206/68 103/210/68 105/214/68 107/218/68 109/222/68 111/226/68 113/230/68 115/234/68 117/238/68 119/242/68 121/246/68 123/250/68 125/254/68 127/258/68
